<svg xmlns="http://www.w3.org/2000/svg" viewBox="0 0 50.78 50.61"><title>clear-night</title><g id="05bc5ae8-809f-4a99-b391-f2690aae1579" data-name="Layer 2"><g id="89b581e3-4be4-4609-b070-7c8c5bb63dac" data-name="Modalità Isolamento"><path d="M36.53,8.55A20.57,20.57,0,0,1,41.18,12a20.49,20.49,0,1,1-29,29,20.57,20.57,0,0,1-3.49-4.65,25.47,25.47,0,0,0,2.66.14,25.12,25.12,0,0,0,17.88-7.4A25.26,25.26,0,0,0,36.53,8.55M33.3,4.61A22.9,22.9,0,0,1,4.78,33.13,22.89,22.89,0,1,0,33.3,4.61Z" fill="#ffbd47"/><path d="M27.57,27.4A22.88,22.88,0,0,0,33.3,4.61,22.89,22.89,0,1,1,4.78,33.13,22.88,22.88,0,0,0,27.57,27.4Z" fill="none" stroke="#ffbd47" stroke-linecap="round" stroke-miterlimit="10" stroke-width="2.4"/><rect x="15.71" y="15.71" width="4.53" height="4.53" transform="translate(43.39 17.97) rotate(135)" fill="#c9c9c9"/><rect x="0.94" y="11.86" width="4.53" height="4.53" transform="translate(15.45 21.85) rotate(135)" fill="#c9c9c9"/><rect x="11.86" y="0.94" width="4.53" height="4.53" transform="translate(26.37 -4.52) rotate(135)" fill="#c9c9c9"/></g></g></svg>