<svg xmlns="http://www.w3.org/2000/svg" viewBox="0 0 65.63 65.35"><title>partly-cloudy-night</title><g id="5295d3ad-fa29-401c-9b6a-8db7e2f5c4b0" data-name="Layer 2"><g id="68ad975b-99bc-42cd-bc25-56373eb36ddb" data-name="Modalità Isolamento"><path d="M43.16,31.11A22.35,22.35,0,0,1,47.08,31c.1-.33.2-.66.29-1A24.39,24.39,0,0,0,30.82.43L29.43,0a.44.44,0,0,0-.54.54l.42,1.38A22,22,0,0,1,1.95,29.3L.56,28.89a.44.44,0,0,0-.54.54l.42,1.38A24.27,24.27,0,0,0,11.92,45.07c1-.89,2.21-1.6,3.24-2.42a20.8,20.8,0,0,1-9.58-8.92,25.76,25.76,0,0,0,2.7.14,25.43,25.43,0,0,0,18.1-7.5A25.57,25.57,0,0,0,33.74,5.59a20.72,20.72,0,0,1,9.43,25.52Z" fill="#ffbd47"/><path d="M30.09,41.55a11.65,11.65,0,0,0-7-2.33,11.78,11.78,0,0,0-9.82,5.32,12.17,12.17,0,0,0-2,6.75A12,12,0,0,0,23.09,63.35H46.46a16.77,16.77,0,1,0,0-33.52,17.42,17.42,0,0,0-8,1.95A16.71,16.71,0,0,0,29.3,46.59" fill="none" stroke="#c9c9c9" stroke-miterlimit="10" stroke-width="4"/></g></g></svg>