<svg xmlns="http://www.w3.org/2000/svg" viewBox="0 0 70.98 59.72"><title>partly-cloudy-day</title><g id="01438ffd-7f8e-411e-84da-a0bb6c8a8bd2" data-name="Layer 2"><g id="84e706f7-fa8a-496b-b022-42b65d5a7cd9" data-name="Modalità Isolamento"><line x1="51.33" y1="8.84" x2="44.52" y2="15.68" fill="none" stroke="#ffbd47" stroke-miterlimit="10" stroke-width="4"/><line x1="30.07" y1="9.8" x2="30.07" fill="none" stroke="#ffbd47" stroke-miterlimit="10" stroke-width="4"/><line x1="8.81" y1="8.84" x2="15.61" y2="15.66" fill="none" stroke="#ffbd47" stroke-miterlimit="10" stroke-width="4"/><line x1="9.58" y1="30.17" y2="30.17" fill="none" stroke="#ffbd47" stroke-miterlimit="10" stroke-width="4"/><path d="M18.57,38.95A14.46,14.46,0,1,1,43.88,25.89" fill="none" stroke="#ffbd47" stroke-miterlimit="10" stroke-width="4"/><path d="M35.44,35.91a11.65,11.65,0,0,0-7-2.33,11.78,11.78,0,0,0-9.82,5.32,12.17,12.17,0,0,0-2,6.75A12,12,0,0,0,28.44,57.72H51.81a16.77,16.77,0,1,0,0-33.52,17.42,17.42,0,0,0-8,1.95A16.71,16.71,0,0,0,34.65,41" fill="none" stroke="#c9c9c9" stroke-miterlimit="10" stroke-width="4"/></g></g></svg>