<svg xmlns="http://www.w3.org/2000/svg" viewBox="0 0 65.42 66.17"><title>snow</title><g id="67076837-0d9a-427f-9f00-3fc76dc896bf" data-name="Layer 2"><g id="0fa1c772-7c5d-4569-80d3-e7e183a11d9a" data-name="Modalità Isolamento"><line x1="52.93" y1="51.05" x2="52.93" y2="66.17" fill="none" stroke="#c9c9c9" stroke-linejoin="bevel" stroke-width="2.8"/><line x1="45.37" y1="58.61" x2="60.49" y2="58.61" fill="none" stroke="#c9c9c9" stroke-linejoin="bevel" stroke-width="2.8"/><line x1="58.27" y1="53.27" x2="47.58" y2="63.96" fill="none" stroke="#c9c9c9" stroke-linejoin="bevel" stroke-width="2.8"/><line x1="47.58" y1="53.27" x2="58.27" y2="63.96" fill="none" stroke="#c9c9c9" stroke-linejoin="bevel" stroke-width="2.8"/><line x1="10.03" y1="51.05" x2="10.03" y2="66.17" fill="none" stroke="#c9c9c9" stroke-linejoin="bevel" stroke-width="2.8"/><line x1="17.59" y1="58.61" x2="2.47" y2="58.61" fill="none" stroke="#c9c9c9" stroke-linejoin="bevel" stroke-width="2.8"/><line x1="4.68" y1="53.27" x2="15.37" y2="63.96" fill="none" stroke="#c9c9c9" stroke-linejoin="bevel" stroke-width="2.8"/><line x1="15.37" y1="53.27" x2="4.68" y2="63.96" fill="none" stroke="#c9c9c9" stroke-linejoin="bevel" stroke-width="2.8"/><path d="M45.44,20.76a11.68,11.68,0,1,1,6.3,21.52H45.09" fill="none" stroke="#c9c9c9" stroke-miterlimit="10" stroke-width="4"/><path d="M25.92,18.36A14,14,0,1,0,16,42.28h2.88" fill="none" stroke="#c9c9c9" stroke-miterlimit="10" stroke-width="4"/><path d="M18.48,14.47a17.29,17.29,0,0,1,33.89,4.46" fill="none" stroke="#c9c9c9" stroke-miterlimit="10" stroke-width="4"/><line x1="31.83" y1="34.72" x2="31.83" y2="49.84" fill="none" stroke="#c9c9c9" stroke-linejoin="bevel" stroke-width="2.8"/><line x1="39.39" y1="42.28" x2="24.27" y2="42.28" fill="none" stroke="#c9c9c9" stroke-linejoin="bevel" stroke-width="2.8"/><line x1="26.48" y1="36.94" x2="37.17" y2="47.63" fill="none" stroke="#c9c9c9" stroke-linejoin="bevel" stroke-width="2.8"/><line x1="37.17" y1="36.94" x2="26.48" y2="47.63" fill="none" stroke="#c9c9c9" stroke-linejoin="bevel" stroke-width="2.8"/></g></g></svg>